<?xml version="1.0" encoding="UTF-8" standalone="no"?>
<svg
   width="512"
   height="512"
   viewBox="0 0 512 512"
   version="1.1"
   id="svg10"
   sodipodi:docname="camera-aperture-mb-favicon.svg"
   inkscape:version="1.4.2 (ebf0e940, 2025-05-08)"
   xmlns:inkscape="http://www.inkscape.org/namespaces/inkscape"
   xmlns:sodipodi="http://sodipodi.sourceforge.net/DTD/sodipodi-0.dtd"
   xmlns="http://www.w3.org/2000/svg"
   xmlns:svg="http://www.w3.org/2000/svg">
  <defs
     id="defs10" />
  <sodipodi:namedview
     id="namedview10"
     pagecolor="#ffffff"
     bordercolor="#000000"
     borderopacity="0.25"
     inkscape:showpageshadow="2"
     inkscape:pageopacity="0.0"
     inkscape:pagecheckerboard="0"
     inkscape:deskcolor="#d1d1d1"
     inkscape:zoom="1.0558376"
     inkscape:cx="278.92548"
     inkscape:cy="183.26682"
     inkscape:window-width="1512"
     inkscape:window-height="892"
     inkscape:window-x="3298"
     inkscape:window-y="34"
     inkscape:window-maximized="0"
     inkscape:current-layer="svg10" />
  <title
     id="title1">Camera + Aperture + MB Monogram</title>
  <rect
     width="100%"
     height="100%"
     fill="none"
     id="rect1" />
  <!-- Camera body -->
  <rect
     x="64"
     y="136"
     width="384"
     height="256"
     rx="36"
     ry="36"
     fill="#111111"
     id="rect2" />
  <!-- Top bump / prism -->
  <path
     d="M144 136 H240 L264 176 H144 Z"
     fill="#111111"
     id="path2" />
  <!-- Shutter button -->
  <rect
     x="276"
     y="136"
     width="36"
     height="24"
     rx="8"
     ry="8"
     fill="#111111"
     id="rect3" />
  <!-- Viewfinder/flash window -->
  <rect
     x="344"
     y="172"
     width="56"
     height="28"
     rx="8"
     ry="8"
     fill="#ffffff"
     id="rect4" />
  <!-- Lens base -->
  <circle
     cx="256"
     cy="256"
     r="102"
     fill="#0f0f0f"
     id="circle4" />
  <!-- Lens outer ring -->
  <circle
     cx="256"
     cy="256"
     r="92"
     fill="#ffffff"
     id="circle5" />
  <!-- Aperture blades -->
  <g
     fill="#111111"
     id="g10">
    <path
       d="M 340.693 241.066 A 86.000 86.000 0 0 1 321.880 311.280 L 303.495 295.853 A 62.000 62.000 0 0 0 317.058 245.234 Z"
       id="path5" />
    <path
       d="M 311.280 321.880 A 86.000 86.000 0 0 1 241.066 340.693 L 245.234 317.058 A 62.000 62.000 0 0 0 295.853 303.495 Z"
       id="path6" />
    <path
       d="M 226.586 336.814 A 86.000 86.000 0 0 1 175.186 285.414 L 197.739 277.205 A 62.000 62.000 0 0 0 234.795 314.261 Z"
       id="path7" />
    <path
       d="M 171.307 270.934 A 86.000 86.000 0 0 1 190.120 200.720 L 208.505 216.147 A 62.000 62.000 0 0 0 194.942 266.766 Z"
       id="path8" />
    <path
       d="M 200.720 190.120 A 86.000 86.000 0 0 1 270.934 171.307 L 266.766 194.942 A 62.000 62.000 0 0 0 216.147 208.505 Z"
       id="path9" />
    <path
       d="M 285.414 175.186 A 86.000 86.000 0 0 1 336.814 226.586 L 314.261 234.795 A 62.000 62.000 0 0 0 277.205 197.739 Z"
       id="path10" />
  </g>
  <!-- Center disc for contrast behind the monogram -->
  <circle
     cx="256"
     cy="256"
     r="52"
     fill="#111111"
     id="circle10" />
  <!-- MB monogram (text, heavy weight for small-size legibility) -->
  <text
     x="131.25977"
     y="369.1423"
     text-anchor="middle"
     font-family="Inter, Arial, Helvetica, sans-serif"
     font-weight="800"
     font-size="74.6746px"
     fill="#ffffff"
     letter-spacing="-2"
     id="text10"
     transform="scale(0.99098609,1.0090959)"
     style="stroke-width:0.957365">MB</text>
</svg>
