<?xml version="1.0" encoding="UTF-8"?>
<svg xmlns="http://www.w3.org/2000/svg" width="512" height="512" viewBox="0 0 512 512">
  <title>Camera with Aperture Favicon</title>
  <rect width="100%" height="100%" fill="none"/>
  <!-- Camera body -->
  <rect x="64" y="136" width="384" height="256" rx="36" ry="36" fill="#111111"/>
  <!-- Top bump / prism -->
  <path d="M144 136 H240 L264 176 H144 Z" fill="#111111"/>
  <!-- Shutter button -->
  <rect x="276" y="136" width="36" height="24" rx="8" ry="8" fill="#111111"/>
  <!-- Viewfinder/flash window -->
  <rect x="344" y="172" width="56" height="28" rx="8" ry="8" fill="#ffffff"/>
  <!-- Lens base -->
  <circle cx="256" cy="256" r="102" fill="#0f0f0f"/>
  <!-- Lens outer ring -->
  <circle cx="256" cy="256" r="92" fill="#ffffff"/>
  <!-- Aperture blades -->
  <g fill="#111111">
    <path d="M 340.693 241.066 A 86.000 86.000 0 0 1 321.880 311.280 L 303.495 295.853 A 62.000 62.000 0 0 0 317.058 245.234 Z"/><path d="M 311.280 321.880 A 86.000 86.000 0 0 1 241.066 340.693 L 245.234 317.058 A 62.000 62.000 0 0 0 295.853 303.495 Z"/><path d="M 226.586 336.814 A 86.000 86.000 0 0 1 175.186 285.414 L 197.739 277.205 A 62.000 62.000 0 0 0 234.795 314.261 Z"/><path d="M 171.307 270.934 A 86.000 86.000 0 0 1 190.120 200.720 L 208.505 216.147 A 62.000 62.000 0 0 0 194.942 266.766 Z"/><path d="M 200.720 190.120 A 86.000 86.000 0 0 1 270.934 171.307 L 266.766 194.942 A 62.000 62.000 0 0 0 216.147 208.505 Z"/><path d="M 285.414 175.186 A 86.000 86.000 0 0 1 336.814 226.586 L 314.261 234.795 A 62.000 62.000 0 0 0 277.205 197.739 Z"/>
  </g>
  <!-- Inner lens core (gives a crisp center) -->
  <circle cx="256" cy="256" r="56" fill="#0f0f0f"/>
</svg>
